# xmcd CD database file
#
# Track frame offsets:
#	150
#	12050
#	23139
#	36060
#	49052
#	61922
#	74578
#	86534
#	99381
#	111873
#	124773
#	138291
#	150393
#	163683
#	177805
#	190980
#	203469
#	218110
#	231391
#	246126
#
# Disc length: 3473 seconds
#
# Revision: 0
# Processed by: cddbd v1.5.1PL2 Copyright (c) Steve Scherf et al.
# Submitted via: CDex 1.51
#
DISCID=070d8f14
DTITLE=Gene Autry - Greatest Hits
DYEAR=2001
DGENRE=Country
TTITLE0=Blueberry Hill
TTITLE1=You are My Sunshine
TTITLE2=Lonely River
TTITLE3=That Silver Haired Daddy of Mine
TTITLE4=High Steppin' Mama Blues
TTITLE5=Have I Told You Lately That I love You
TTITLE6=Back in the Saddle Again
TTITLE7=Dear Old Western Skies
TTITLE8=Be Honest With Me
TTITLE9=South of the Border
TTITLE10=Guns and Guitars
TTITLE11=When the Golden Leaves are Falling
TTITLE12=Texas Plains
TTITLE13=The Old Trail
TTITLE14=Ridin' Down The Canyon
TTITLE15=Any Old Time
TTITLE16=Blue Hawaii
TTITLE17=If Today Was The End of The World
TTITLE18=The Last Round Up
TTITLE19=Mexicali Rose
EXTD=YEAR: 2001
EXTT0=
EXTT1=
EXTT2=
EXTT3=
EXTT4=
EXTT5=
EXTT6=
EXTT7=
EXTT8=
EXTT9=
EXTT10=
EXTT11=
EXTT12=
EXTT13=
EXTT14=
EXTT15=
EXTT16=
EXTT17=
EXTT18=
EXTT19=
PLAYORDER=
